<svg id="Layer_1" data-name="Layer 1" xmlns="http://www.w3.org/2000/svg" viewBox="0 0 63 53"><title>desktop</title><path d="M61.5,0H1.5A1.5,1.5,0,0,0,0,1.5v40A1.5,1.5,0,0,0,1.5,43H25v0.52a5.66,5.66,0,0,1-1.67,4l-1.8,1.8A2.14,2.14,0,0,0,23,53H40a2.14,2.14,0,0,0,1.51-3.65l-1.8-1.8a5.66,5.66,0,0,1-1.67-4V43H61.5A1.5,1.5,0,0,0,63,41.5V1.5A1.5,1.5,0,0,0,61.5,0ZM25.12,50l0.33-.33A8.64,8.64,0,0,0,28,43.52V43h7v0.52a8.64,8.64,0,0,0,2.55,6.15L37.88,50H25.12ZM60,40H3V38H60v2Zm0-5H3V3H60V35Z"/><path d="M6.5,12a0.5,0.5,0,0,0,.35-0.15l5-5a0.5,0.5,0,1,0-.71-0.71l-5,5A0.5,0.5,0,0,0,6.5,12Z"/><path d="M6.5,17a0.5,0.5,0,0,0,.35-0.15l10-10a0.5,0.5,0,0,0-.71-0.71l-10,10A0.5,0.5,0,0,0,6.5,17Z"/><circle cx="31.5" cy="6.51" r="1.49"/></svg>