<svg id="Layer_1" data-name="Layer 1" xmlns="http://www.w3.org/2000/svg" viewBox="0 0 46 46"><defs><style>.cls-1{fill:none;stroke:#f69169;stroke-miterlimit:10;stroke-width:2px;}</style></defs><title>icon-allergies</title><path class="cls-1" d="M8.86,28.86C4.31,28.08,1,25.75,1,23s3.31-5.08,7.86-5.86C6.19,13.38,5.5,9.39,7.44,7.44s5.93-1.25,9.7,1.42C17.92,4.31,20.25,1,23,1s5.08,3.31,5.86,7.86c3.77-2.67,7.75-3.36,9.7-1.42s1.25,5.93-1.42,9.7C41.69,17.92,45,20.25,45,23s-3.31,5.08-7.86,5.86c2.67,3.77,3.36,7.75,1.42,9.7s-5.93,1.25-9.7-1.42C28.08,41.69,25.75,45,23,45s-5.08-3.31-5.86-7.86c-3.77,2.67-7.75,3.36-9.7,1.42S6.19,32.62,8.86,28.86Z"/><circle class="cls-1" cx="23" cy="23" r="6"/></svg>