
<svg width="54px" height="54px" viewBox="213 515 54 54" version="1.1" xmlns="http://www.w3.org/2000/svg" xmlns:xlink="http://www.w3.org/1999/xlink">
    <!-- Generator: Sketch 39.1 (31720) - http://www.bohemiancoding.com/sketch -->
    <desc>Created with Sketch.</desc>
    <defs>
        <path d="M17,17.611859 L17,8.90225441 C17,3.43339031 21.4759382,-1 27,-1 C32.5228475,-1 37,3.4208941 37,8.89338579 L37,18 M37,36.8994949 L37,45.0050899 C37,50.5251263 32.5240618,55 27,55 C21.4771525,55 17,50.5246934 17,45.0014809 L17,36.6269067" id="path-1"></path>
        <mask id="mask-2" maskContentUnits="userSpaceOnUse" maskUnits="objectBoundingBox" x="0" y="0" width="20" height="56" fill="white">
            <use xlink:href="#path-1"></use>
        </mask>
        <rect id="path-3" x="17" y="-1" width="20" height="56" rx="10"></rect>
        <mask id="mask-4" maskContentUnits="userSpaceOnUse" maskUnits="objectBoundingBox" x="0" y="0" width="20" height="56" fill="white">
            <use xlink:href="#path-3"></use>
        </mask>
    </defs>
    <g id="My-Account-Copy" stroke="none" stroke-width="1" fill="none" fill-rule="evenodd" transform="translate(213.000000, 515.000000)">
        <use id="Rectangle-5" stroke="#657D99" mask="url(#mask-2)" stroke-width="4" transform="translate(27.000000, 27.000000) rotate(45.000000) translate(-27.000000, -27.000000) " xlink:href="#path-1"></use>
        <use id="Rectangle-5" stroke="#657D99" mask="url(#mask-4)" stroke-width="4" transform="translate(27.000000, 27.000000) scale(-1, 1) rotate(45.000000) translate(-27.000000, -27.000000) " xlink:href="#path-3"></use>
        <path d="M23,18 C23.5522847,18 24,17.5522847 24,17 C24,16.4477153 23.5522847,16 23,16 C22.4477153,16 22,16.4477153 22,17 C22,17.5522847 22.4477153,18 23,18 Z M20,21 C20.5522847,21 21,20.5522847 21,20 C21,19.4477153 20.5522847,19 20,19 C19.4477153,19 19,19.4477153 19,20 C19,20.5522847 19.4477153,21 20,21 Z M17,24 C17.5522847,24 18,23.5522847 18,23 C18,22.4477153 17.5522847,22 17,22 C16.4477153,22 16,22.4477153 16,23 C16,23.5522847 16.4477153,24 17,24 Z M20,15 C20.5522847,15 21,14.5522847 21,14 C21,13.4477153 20.5522847,13 20,13 C19.4477153,13 19,13.4477153 19,14 C19,14.5522847 19.4477153,15 20,15 Z M17,18 C17.5522847,18 18,17.5522847 18,17 C18,16.4477153 17.5522847,16 17,16 C16.4477153,16 16,16.4477153 16,17 C16,17.5522847 16.4477153,18 17,18 Z M14,21 C14.5522847,21 15,20.5522847 15,20 C15,19.4477153 14.5522847,19 14,19 C13.4477153,19 13,19.4477153 13,20 C13,20.5522847 13.4477153,21 14,21 Z M17,12 C17.5522847,12 18,11.5522847 18,11 C18,10.4477153 17.5522847,10 17,10 C16.4477153,10 16,10.4477153 16,11 C16,11.5522847 16.4477153,12 17,12 Z M14,15 C14.5522847,15 15,14.5522847 15,14 C15,13.4477153 14.5522847,13 14,13 C13.4477153,13 13,13.4477153 13,14 C13,14.5522847 13.4477153,15 14,15 Z M11,12 C11.5522847,12 12,11.5522847 12,11 C12,10.4477153 11.5522847,10 11,10 C10.4477153,10 10,10.4477153 10,11 C10,11.5522847 10.4477153,12 11,12 Z M11,18 C11.5522847,18 12,17.5522847 12,17 C12,16.4477153 11.5522847,16 11,16 C10.4477153,16 10,16.4477153 10,17 C10,17.5522847 10.4477153,18 11,18 Z M31,36 C30.4477153,36 30,36.4477153 30,37 C30,37.5522847 30.4477153,38 31,38 C31.5522847,38 32,37.5522847 32,37 C32,36.4477153 31.5522847,36 31,36 Z M34,33 C33.4477153,33 33,33.4477153 33,34 C33,34.5522847 33.4477153,35 34,35 C34.5522847,35 35,34.5522847 35,34 C35,33.4477153 34.5522847,33 34,33 Z M37,30 C36.4477153,30 36,30.4477153 36,31 C36,31.5522847 36.4477153,32 37,32 C37.5522847,32 38,31.5522847 38,31 C38,30.4477153 37.5522847,30 37,30 Z M34,39 C33.4477153,39 33,39.4477153 33,40 C33,40.5522847 33.4477153,41 34,41 C34.5522847,41 35,40.5522847 35,40 C35,39.4477153 34.5522847,39 34,39 Z M37,36 C36.4477153,36 36,36.4477153 36,37 C36,37.5522847 36.4477153,38 37,38 C37.5522847,38 38,37.5522847 38,37 C38,36.4477153 37.5522847,36 37,36 Z M40,33 C39.4477153,33 39,33.4477153 39,34 C39,34.5522847 39.4477153,35 40,35 C40.5522847,35 41,34.5522847 41,34 C41,33.4477153 40.5522847,33 40,33 Z M37,42 C36.4477153,42 36,42.4477153 36,43 C36,43.5522847 36.4477153,44 37,44 C37.5522847,44 38,43.5522847 38,43 C38,42.4477153 37.5522847,42 37,42 Z M40,39 C39.4477153,39 39,39.4477153 39,40 C39,40.5522847 39.4477153,41 40,41 C40.5522847,41 41,40.5522847 41,40 C41,39.4477153 40.5522847,39 40,39 Z M43,42 C42.4477153,42 42,42.4477153 42,43 C42,43.5522847 42.4477153,44 43,44 C43.5522847,44 44,43.5522847 44,43 C44,42.4477153 43.5522847,42 43,42 Z M43,36 C42.4477153,36 42,36.4477153 42,37 C42,37.5522847 42.4477153,38 43,38 C43.5522847,38 44,37.5522847 44,37 C44,36.4477153 43.5522847,36 43,36 Z M34,15 C33.4477153,15 33,14.5522847 33,14 C33,13.4477153 33.4477153,13 34,13 C34.5522847,13 35,13.4477153 35,14 C35,14.5522847 34.5522847,15 34,15 Z M37,18 C36.4477153,18 36,17.5522847 36,17 C36,16.4477153 36.4477153,16 37,16 C37.5522847,16 38,16.4477153 38,17 C38,17.5522847 37.5522847,18 37,18 Z M40,21 C39.4477153,21 39,20.5522847 39,20 C39,19.4477153 39.4477153,19 40,19 C40.5522847,19 41,19.4477153 41,20 C41,20.5522847 40.5522847,21 40,21 Z M37,12 C36.4477153,12 36,11.5522847 36,11 C36,10.4477153 36.4477153,10 37,10 C37.5522847,10 38,10.4477153 38,11 C38,11.5522847 37.5522847,12 37,12 Z M40,15 C39.4477153,15 39,14.5522847 39,14 C39,13.4477153 39.4477153,13 40,13 C40.5522847,13 41,13.4477153 41,14 C41,14.5522847 40.5522847,15 40,15 Z M43,12 C42.4477153,12 42,11.5522847 42,11 C42,10.4477153 42.4477153,10 43,10 C43.5522847,10 44,10.4477153 44,11 C44,11.5522847 43.5522847,12 43,12 Z M43,18 C42.4477153,18 42,17.5522847 42,17 C42,16.4477153 42.4477153,16 43,16 C43.5522847,16 44,16.4477153 44,17 C44,17.5522847 43.5522847,18 43,18 Z M20,39 C20.5522847,39 21,39.4477153 21,40 C21,40.5522847 20.5522847,41 20,41 C19.4477153,41 19,40.5522847 19,40 C19,39.4477153 19.4477153,39 20,39 Z M17,36 C17.5522847,36 18,36.4477153 18,37 C18,37.5522847 17.5522847,38 17,38 C16.4477153,38 16,37.5522847 16,37 C16,36.4477153 16.4477153,36 17,36 Z M14,33 C14.5522847,33 15,33.4477153 15,34 C15,34.5522847 14.5522847,35 14,35 C13.4477153,35 13,34.5522847 13,34 C13,33.4477153 13.4477153,33 14,33 Z M17,42 C17.5522847,42 18,42.4477153 18,43 C18,43.5522847 17.5522847,44 17,44 C16.4477153,44 16,43.5522847 16,43 C16,42.4477153 16.4477153,42 17,42 Z M14,39 C14.5522847,39 15,39.4477153 15,40 C15,40.5522847 14.5522847,41 14,41 C13.4477153,41 13,40.5522847 13,40 C13,39.4477153 13.4477153,39 14,39 Z M11,42 C11.5522847,42 12,42.4477153 12,43 C12,43.5522847 11.5522847,44 11,44 C10.4477153,44 10,43.5522847 10,43 C10,42.4477153 10.4477153,42 11,42 Z M11,36 C11.5522847,36 12,36.4477153 12,37 C12,37.5522847 11.5522847,38 11,38 C10.4477153,38 10,37.5522847 10,37 C10,36.4477153 10.4477153,36 11,36 Z" id="Combined-Shape" fill="#627A97"></path>
    </g>
</svg>