<svg id="Layer_1" data-name="Layer 1" xmlns="http://www.w3.org/2000/svg" viewBox="0 0 20 20"><defs><style>.cls-1{fill:none;stroke:#394e67;stroke-linecap:round;stroke-miterlimit:10;stroke-width:2px;}.cls-2{fill:#394e67;fill-rule:evenodd;}</style></defs><title>icon-organizations</title><path class="cls-1" d="M13,8h4a2,2,0,0,1,2,2v9"/><path class="cls-1" d="M13,19V3a2,2,0,0,0-2-2H3A2,2,0,0,0,1,3V19"/><path class="cls-2" d="M4,7.5A0.5,0.5,0,0,1,4.49,7h5a0.5,0.5,0,0,1,0,1h-5A0.5,0.5,0,0,1,4,7.5Z"/><path class="cls-2" d="M4,4.5A0.5,0.5,0,0,1,4.49,4h5a0.5,0.5,0,0,1,0,1h-5A0.5,0.5,0,0,1,4,4.5Z"/><path class="cls-2" d="M4,10.5A0.5,0.5,0,0,1,4.49,10h5a0.5,0.5,0,0,1,0,1h-5A0.5,0.5,0,0,1,4,10.5Z"/><path class="cls-2" d="M4,13.5A0.5,0.5,0,0,1,4.49,13h5a0.5,0.5,0,0,1,0,1h-5A0.5,0.5,0,0,1,4,13.5Z"/><path class="cls-2" d="M4,16.5A0.5,0.5,0,0,1,4.49,16h5a0.5,0.5,0,0,1,0,1h-5A0.5,0.5,0,0,1,4,16.5Z"/></svg>