<svg id="Layer_1" data-name="Layer 1" xmlns="http://www.w3.org/2000/svg" viewBox="0 0 34 44"><defs><style>.cls-1{fill:#44b79c;}</style></defs><title>icon-medic2</title><path class="cls-1" d="M29,5H5a5,5,0,0,0-5,5V39a5,5,0,0,0,5,5H29a5,5,0,0,0,5-5V10A5,5,0,0,0,29,5Zm3,34a3,3,0,0,1-3,3H5a3,3,0,0,1-3-3V10A3,3,0,0,1,5,7H29a3,3,0,0,1,3,3V39ZM2,1A1,1,0,0,1,3,0H31a1,1,0,0,1,0,2H3A1,1,0,0,1,2,1ZM25,20H21V16a1,1,0,0,0-1-1H14a1,1,0,0,0-1,1v4H9a1,1,0,0,0-1,1v6a1,1,0,0,0,1,1h4v4a1,1,0,0,0,1,1h6a1,1,0,0,0,1-1V28h4a1,1,0,0,0,1-1V21A1,1,0,0,0,25,20Zm-1,6H19v5H15V26H10V22h5V17h4v5h5v4Z"/></svg>