<?xml version="1.0" encoding="UTF-8" standalone="no"?>
<svg width="46px" height="44px" viewBox="0 0 46 44" version="1.1" xmlns="http://www.w3.org/2000/svg" xmlns:xlink="http://www.w3.org/1999/xlink">
    <!-- Generator: Sketch 39.1 (31720) - http://www.bohemiancoding.com/sketch -->
    <title>My Health</title>
    <desc>Created with Sketch.</desc>
    <defs></defs>
    <g id="Page-1" stroke="none" stroke-width="1" fill="none" fill-rule="evenodd" stroke-linecap="round" stroke-linejoin="round">
        <g id="DASHBOARD-ICONS" transform="translate(-59.000000, -362.000000)" stroke="#FF4A4C" stroke-width="2">
            <g id="heart" transform="translate(60.000000, 363.000000)">
                <path d="M22,43 C22,43 12.3513673,36.702847 5.78529736,27.5076687 M0,11.825 C0,5.29423283 5.15938526,0 11.5238095,0 C16.1723082,0 20.1779589,2.82429606 22,6.89185659" id="Combined-Shape"></path>
                <path d="M44,43 C44,43 34.3513673,36.702847 27.7852974,27.5076687 M22,11.825 C22,5.29423283 27.1593853,0 33.5238095,0 C38.1723082,0 42.1779589,2.82429606 44,6.89185659" id="Combined-Shape" transform="translate(33.000000, 21.500000) scale(-1, 1) translate(-33.000000, -21.500000) "></path>
                <path d="M1,20.5966392 C1,20.5966392 2.79391487,20.5966392 4.9977344,20.5966392 L9.15999521,20.5966392 C11.3678829,20.5966392 14.3897866,19.2985117 15.9058873,17.7011083 L17.624292,15.8905521 C19.1420576,14.2913945 20.3724497,14.7854359 20.3724497,16.9947635 L20.3724497,25.0094507 C20.3724497,27.2184474 21.6060794,27.7094085 23.1223504,26.1118256 L25.7450276,23.3485043 C27.2637558,21.7483324 30.2880829,20.4511369 32.4968999,20.4511369 L43,20.4511369" id="Path-29"></path>
            </g>
        </g>
    </g>
</svg>