<svg id="Layer_1" data-name="Layer 1" xmlns="http://www.w3.org/2000/svg" viewBox="0 0 16.26 16.27"><title>icons-phone</title><path d="M3,2L5.78,4.83s-3.11,1.42,0,4.53l1.09,1.09a3.82,3.82,0,0,0,2.58,1.39,2.43,2.43,0,0,0,2-1.36l2.83,2.83a3.33,3.33,0,0,1-2.44,1c-2,0-4.51-1.43-6.45-3.38C2.54,8.06.79,4.16,3,2M3,0A2,2,0,0,0,1.54.59C-1.2,3.32-.21,8.14,4,12.31c2.49,2.48,5.43,4,7.87,4a5.32,5.32,0,0,0,3.85-1.55,2,2,0,0,0,0-2.83L12.85,9.07a2.05,2.05,0,0,0-1.44-.63,1.77,1.77,0,0,0-.35,0A1.91,1.91,0,0,0,9.63,9.62a0.8,0.8,0,0,1-.22.22A2.63,2.63,0,0,1,8.27,9L7.18,7.94A2.64,2.64,0,0,1,6.4,6.83a1.19,1.19,0,0,1,.21-0.19,2,2,0,0,0,.58-3.23L4.37,0.59A2,2,0,0,0,3,0H3Z"/></svg>