<?xml version="1.0" encoding="UTF-8" standalone="no"?>
<svg width="48px" height="48px" viewBox="0 0 48 48" version="1.1" xmlns="http://www.w3.org/2000/svg" xmlns:xlink="http://www.w3.org/1999/xlink">
    <!-- Generator: Sketch 39.1 (31720) - http://www.bohemiancoding.com/sketch -->
    <title>My Account</title>
    <desc>Created with Sketch.</desc>
    <defs></defs>
    <g id="Page-1" stroke="none" stroke-width="1" fill="none" fill-rule="evenodd">
        <g id="DASHBOARD-ICONS" transform="translate(-59.000000, -265.000000)">
            <g id="My-Account" transform="translate(59.000000, 265.000000)">
                <path d="M16.0958558,0.508007908 C16.2644969,0.137313118 16.7159598,-0.0788567352 17.1103251,0.0268131239 C17.50196,0.131751373 17.7870532,0.550896546 17.7482839,0.950774674 L17.5154771,3.35201343 C17.4453581,4.07524177 16.8145133,4.50773076 16.1196131,4.32153282 L15.8209471,4.2415055 C15.1201517,4.05372793 14.7937905,3.37011579 15.0968531,2.70394507 L16.0958558,0.508007908 L16.0958558,0.508007908 L16.0958558,0.508007908 L16.0958558,0.508007908 Z M10.9041442,26.4919921 C10.7355031,26.8626869 10.2840402,27.0788567 9.88967487,26.9731869 C9.49804,26.8682486 9.21294679,26.4491035 9.25171609,26.0492253 L9.48452289,23.6479866 C9.55464189,22.9247582 10.1854867,22.4922692 10.8803869,22.6784672 L11.1790529,22.7584945 C11.8798483,22.9462721 12.2062095,23.6298842 11.9031469,24.2960549 L10.9041442,26.4919921 L10.9041442,26.4919921 L10.9041442,26.4919921 L10.9041442,26.4919921 Z M26.4919921,16.0958558 C26.8626869,16.2644969 27.0788567,16.7159598 26.9731869,17.1103251 C26.8682486,17.50196 26.4491035,17.7870532 26.0492253,17.7482839 L23.6479866,17.5154771 C22.9247582,17.4453581 22.4922692,16.8145133 22.6784672,16.1196131 L22.7584945,15.8209471 C22.9462721,15.1201517 23.6298842,14.7937905 24.2960549,15.0968531 L26.4919921,16.0958558 L26.4919921,16.0958558 L26.4919921,16.0958558 L26.4919921,16.0958558 Z M0.508007908,10.9041442 C0.137313118,10.7355031 -0.0788567352,10.2840402 0.0268131239,9.88967487 C0.131751373,9.49804 0.550896546,9.21294679 0.950774674,9.25171609 L3.35201343,9.48452289 C4.07524177,9.55464189 4.50773076,10.1854867 4.32153282,10.8803869 L4.2415055,11.1790529 C4.05372793,11.8798483 3.37011579,12.2062095 2.70394507,11.9031469 L0.508007908,10.9041442 L0.508007908,10.9041442 Z M26.0493231,9.25208105 C26.4546747,9.21278108 26.8676148,9.49567455 26.9732847,9.89003984 C27.0782229,10.2816747 26.8577792,10.7381453 26.4920899,10.9045091 L24.2961527,11.9035119 C23.6347591,12.2044012 22.9447902,11.8743181 22.7585923,11.1794179 L22.678565,10.8807519 C22.4907874,10.1799565 22.9196323,9.55551331 23.6480844,9.48488785 L26.0493231,9.25208105 L26.0493231,9.25208105 Z M0.950676883,17.7479189 C0.545325258,17.7872189 0.132385192,17.5043254 0.0267153327,17.1099602 C-0.0782229162,16.7183253 0.142220849,16.2618547 0.507910117,16.0954909 L2.70384728,15.0964881 C3.36524089,14.7955988 4.05520977,15.1256819 4.24140771,15.8205821 L4.32143502,16.1192481 C4.50921259,16.8200435 4.08036771,17.4444867 3.35191564,17.5151122 L0.950676883,17.7479189 L0.950676883,17.7479189 Z M17.7479189,26.0493231 C17.7872189,26.4546747 17.5043254,26.8676148 17.1099602,26.9732847 C16.7183253,27.0782229 16.2618547,26.8577792 16.0954909,26.4920899 L15.0964881,24.2961527 C14.7955988,23.6347591 15.1256819,22.9447902 15.8205821,22.7585923 L16.1192481,22.678565 C16.8200435,22.4907874 17.4444867,22.9196323 17.5151122,23.6480844 L17.7479189,26.0493231 L17.7479189,26.0493231 Z M9.25208105,0.950676883 C9.21278108,0.545325258 9.49567455,0.132385192 9.89003984,0.0267153327 C10.2816747,-0.0782229162 10.7381453,0.142220849 10.9045091,0.507910117 L11.9035119,2.70384728 C12.2044012,3.36524089 11.8743181,4.05520977 11.1794179,4.24140771 L10.8807519,4.32143502 C10.1799565,4.50921259 9.55551331,4.08036771 9.48488785,3.35191564 L9.25208105,0.950676883 L9.25208105,0.950676883 Z M22.2440731,3.54653272 C22.575468,3.30982214 23.0745313,3.34834503 23.3632267,3.63704046 C23.6499233,3.92373709 23.6872487,4.42927406 23.4537344,4.75619402 L22.0514985,6.71932439 C21.6291595,7.310599 20.8665873,7.36972302 20.3578851,6.8610208 L20.1392464,6.6423821 C19.6262285,6.12936425 19.6853975,5.37415817 20.2809428,4.9487687 L22.2440731,3.54653272 L22.2440731,3.54653272 Z M4.75592685,23.4534673 C4.42453203,23.6901779 3.92546871,23.651655 3.63677329,23.3629595 C3.35007666,23.0762629 3.31275129,22.5707259 3.54626555,22.243806 L4.94850153,20.2806756 C5.37084053,19.689401 6.1334127,19.630277 6.64211492,20.1389792 L6.86075362,20.3576179 C7.37377147,20.8706357 7.31460248,21.6258418 6.71905722,22.0512313 L4.75592685,23.4534673 L4.75592685,23.4534673 Z M23.4534673,22.2440731 C23.6901779,22.575468 23.651655,23.0745313 23.3629595,23.3632267 C23.0762629,23.6499233 22.5707259,23.6872487 22.243806,23.4537344 L20.2806756,22.0514985 C19.689401,21.6291595 19.630277,20.8665873 20.1389792,20.3578851 L20.3576179,20.1392464 C20.8706357,19.6262285 21.6258418,19.6853975 22.0512313,20.2809428 L23.4534673,22.2440731 L23.4534673,22.2440731 Z M3.54653272,4.75592685 C3.30982214,4.42453203 3.34834503,3.92546871 3.63704046,3.63677329 C3.92373709,3.35007666 4.42927406,3.31275129 4.75619402,3.54626555 L6.71932439,4.94850153 C7.310599,5.37084053 7.36972302,6.1334127 6.8610208,6.64211492 L6.6423821,6.86075362 C6.12936425,7.37377147 5.37415817,7.31460248 4.9487687,6.71905722 L3.54653272,4.75592685 L3.54653272,4.75592685 Z" id="Combined-Shape" fill="#F49F96" fill-rule="evenodd"></path>
                <path d="M11.0418292,22.6740184 C16.1084996,24.0316287 21.3164082,21.0248413 22.6740184,15.9581708 C24.0316287,10.8915004 21.0248413,5.68359184 15.9581708,4.32598158 C10.8915004,2.96837132 5.68359184,5.97515871 4.32598158,11.0418292 C2.96837132,16.1084996 5.97515871,21.3164082 11.0418292,22.6740184 L11.0418292,22.6740184 Z" id="Oval-16" stroke="#F49F96" stroke-width="2"></path>
                <path d="M30.8511258,18.7139064 C30.9168391,18.3196268 31.2899376,18 31.6906616,18 C32.0886112,18 32.4653715,18.3249508 32.5301974,18.7139064 L32.9194724,21.0495565 C33.036718,21.7530302 32.5485071,22.3233083 31.8424024,22.3233083 L31.5389208,22.3233083 C30.8268259,22.3233083 30.3437584,21.7581112 30.4618508,21.0495565 L30.8511258,18.7139064 L30.8511258,18.7139064 L30.8511258,18.7139064 Z M32.5298266,44.6670459 C32.4641133,45.0613256 32.0910147,45.3809524 31.6902908,45.3809524 C31.2923412,45.3809524 30.9155809,45.0560016 30.850755,44.6670459 L30.46148,42.3313959 C30.3442344,41.6279222 30.8324453,41.0576441 31.5385499,41.0576441 L31.8420316,41.0576441 C32.5541265,41.0576441 33.037194,41.6228412 32.9191016,42.3313959 L32.5298266,44.6670459 L32.5298266,44.6670459 L32.5298266,44.6670459 Z M44.6670459,30.8511258 C45.0613256,30.9168391 45.3809524,31.2899376 45.3809524,31.6906616 C45.3809524,32.0886112 45.0560016,32.4653715 44.6670459,32.5301974 L42.3313959,32.9194724 C41.6279222,33.036718 41.0576441,32.5485071 41.0576441,31.8424024 L41.0576441,31.5389208 C41.0576441,30.8268259 41.6228412,30.3437584 42.3313959,30.4618508 L44.6670459,30.8511258 L44.6670459,30.8511258 L44.6670459,30.8511258 Z M18.7139064,32.5298266 C18.3196268,32.4641133 18,32.0910147 18,31.6902908 C18,31.2923412 18.3249508,30.9155809 18.7139064,30.850755 L21.0495565,30.46148 C21.7530302,30.3442344 22.3233083,30.8324453 22.3233083,31.5385499 L22.3233083,31.8420316 C22.3233083,32.5541265 21.7581112,33.037194 21.0495565,32.9191016 L18.7139064,32.5298266 Z M42.5088401,24.4752926 C42.8831529,24.3350621 43.3465071,24.4983615 43.5468691,24.8453987 C43.7458438,25.1900331 43.6528084,25.6787925 43.3483759,25.9294112 L41.5202811,27.4343583 C40.9696778,27.8876328 40.231697,27.7499688 39.8786447,27.1384642 L39.7269039,26.8756414 C39.3708564,26.2589491 39.6187977,25.5580019 40.2914703,25.3059956 L42.5088401,24.4752926 Z M20.8721123,38.9056598 C20.4977995,39.0458903 20.0344453,38.8825908 19.8340833,38.5355537 C19.6351085,38.1909193 19.728144,37.7021599 20.0325765,37.4515412 L21.8606713,35.9465941 C22.4112746,35.4933196 23.1492554,35.6309836 23.5023077,36.2424882 L23.6540485,36.505311 C24.010096,37.1220033 23.7621547,37.8229505 23.0894821,38.0749568 L20.8721123,38.9056598 Z M38.9056598,42.5088401 C39.0458903,42.8831529 38.8825908,43.3465071 38.5355537,43.5468691 C38.1909193,43.7458438 37.7021599,43.6528084 37.4515412,43.3483759 L35.9465941,41.5202811 C35.4933196,40.9696778 35.6309836,40.231697 36.2424882,39.8786447 L36.505311,39.7269039 C37.1220033,39.3708564 37.8229505,39.6187977 38.0749568,40.2914703 L38.9056598,42.5088401 Z M24.4752926,20.8721123 C24.3350621,20.4977995 24.4983615,20.0344453 24.8453987,19.8340833 C25.1900331,19.6351085 25.6787925,19.728144 25.9294112,20.0325765 L27.4343583,21.8606713 C27.8876328,22.4112746 27.7499688,23.1492554 27.1384642,23.5023077 L26.8756414,23.6540485 C26.2589491,24.010096 25.5580019,23.7621547 25.3059956,23.0894821 L24.4752926,20.8721123 Z M37.4518623,20.0327619 C37.7059115,19.7241624 38.1888377,19.6339067 38.5358749,19.8342687 C38.8805093,20.0332435 39.0443179,20.5030393 38.905981,20.8722977 L38.075278,23.0896675 C37.8250788,23.7575164 37.1171367,24.0072863 36.5056321,23.6542339 L36.2428093,23.5024931 C35.626117,23.1464456 35.4903668,22.4154369 35.9469153,21.8608567 L37.4518623,20.0327619 Z M25.92909,43.3481904 C25.6750409,43.65679 25.1921147,43.7470456 24.8450775,43.5466836 C24.5004431,43.3477089 24.3366345,42.8779131 24.4749714,42.5086547 L25.3056744,40.2912849 C25.5558736,39.623436 26.2638157,39.3736661 26.8753202,39.7267184 L27.1381431,39.8784593 C27.7548354,40.2345067 27.8905855,40.9655155 27.4340371,41.5200957 L25.92909,43.3481904 Z M43.3481904,37.4518623 C43.65679,37.7059115 43.7470456,38.1888377 43.5466836,38.5358749 C43.3477089,38.8805093 42.8779131,39.0443179 42.5086547,38.905981 L40.2912849,38.075278 C39.623436,37.8250788 39.3736661,37.1171367 39.7267184,36.5056321 L39.8784593,36.2428093 C40.2345067,35.626117 40.9655155,35.4903668 41.5200957,35.9469153 L43.3481904,37.4518623 Z M20.0327619,25.92909 C19.7241624,25.6750409 19.6339067,25.1921147 19.8342687,24.8450775 C20.0332435,24.5004431 20.5030393,24.3366345 20.8722977,24.4749714 L23.0896675,25.3056744 C23.7575164,25.5558736 24.0072863,26.2638157 23.6542339,26.8753202 L23.5024931,27.1381431 C23.1464456,27.7548354 22.4154369,27.8905855 21.8608567,27.4340371 L20.0327619,25.92909 Z" id="Combined-Shape" fill="#F49F96" fill-rule="evenodd"></path>
                <path d="M31.6904762,41 C36.8319842,41 41,36.8319842 41,31.6904762 C41,26.5489682 36.8319842,22.3809524 31.6904762,22.3809524 C26.5489682,22.3809524 22.3809524,26.5489682 22.3809524,31.6904762 C22.3809524,36.8319842 26.5489682,41 31.6904762,41 Z" id="Oval-16" stroke="#F49F96" stroke-width="2"></path>
            </g>
        </g>
    </g>
</svg>