<?xml version="1.0" encoding="utf-8"?>
<!-- Generator: Adobe Illustrator 19.2.0, SVG Export Plug-In . SVG Version: 6.00 Build 0)  -->
<svg version="1.1" id="Layer_1" xmlns="http://www.w3.org/2000/svg" xmlns:xlink="http://www.w3.org/1999/xlink" x="0px" y="0px"
	 viewBox="0 0 20 20.5" style="enable-background:new 0 0 20 20.5;" xml:space="preserve">
<style type="text/css">
	.st0{fill:#394E67;}
</style>
<g>
	<path class="st0" d="M10,10c2.8,0,5-2.2,5-5s-2.2-5-5-5S5,2.2,5,5S7.2,10,10,10z M10,2c1.7,0,3,1.3,3,3s-1.3,3-3,3S7,6.7,7,5
		S8.3,2,10,2z"/>
	<path class="st0" d="M14.5,18.5c0,0.6-0.4,1-1,1s-1-0.4-1-1c0-0.4,0.2-0.7,0.5-0.8v-1.1c-0.9,0.2-1.5,1-1.5,1.9c0,1.1,0.9,2,2,2
		s2-0.9,2-2c0-0.9-0.6-1.7-1.5-1.9v1.1C14.3,17.8,14.5,18.1,14.5,18.5z"/>
	<path class="st0" d="M10,12c-4.8,0-10,2.2-10,7c0,0.6,0.4,1,1,1s1-0.4,1-1c0-3.4,4.2-5,8-5c1,0,2,0.1,3,0.3v2.2
		c0.2,0,0.3-0.1,0.5-0.1s0.3,0,0.5,0.1v-2c2.3,0.7,4,2.2,4,4.4c0,0.6,0.4,1,1,1s1-0.4,1-1C20,14.2,14.8,12,10,12z"/>
</g>
</svg>
