<svg id="Layer_2" data-name="Layer 2" xmlns="http://www.w3.org/2000/svg" viewBox="0 0 571.82 106.25"><defs><style>.cls-1{fill:#fff;}</style></defs><title>mdlive-light</title><path class="cls-1" d="M336.86,11.14v95.11h23.4V0.19H347C341.39,0.19,336.86,4.72,336.86,11.14Z"/><path class="cls-1" d="M453.31,11.14l-0.23.58-0.29.75-0.06.15L429.06,73.29,404.81,11.14c-2.5-6.42-7-10.95-12.63-10.95h-15l41.38,106.06h21.08L481,0.19H466C460.29,0.19,455.82,4.72,453.31,11.14Z"/><path class="cls-1" d="M310.63,84.55h-41.8V11.14c0-6.42-4.53-10.95-10.19-10.95H245.43V106.25h76.15V94C321.58,88.75,317,84.55,310.63,84.55Z"/><path class="cls-1" d="M519.07,84.55V63.41H568.7V41.33H519.07v-21h52.47V0.19H505.86c-5.66,0-10.19,4.53-10.19,10.95v95.11h65.2c6.42,0,11-4.2,11-9.45V84.55H519.07Z"/><path class="cls-1" d="M74.17,12.17L53.31,48.77,32.46,12.17C28.21,4.25,25.66.19,20,.19H0V106.25H23.4V39.63L46.33,77h14L83.22,39.63v66.62h23.4V0.19h-20C81,0.19,78.41,4.25,74.17,12.17Z"/><path class="cls-1" d="M173.24,0c-14.44,0-19.91.19-19.91,0.19H140.12c-5.66,0-10.19,4.53-10.19,10.95v95.11h45.86c13.59,0,52.09-11.14,52.09-52.75C227.88,9.91,187.68,0,173.24,0Zm0,85.21H152.86v-64H170.7c6.51,0,31.7,2.55,31.7,32.55C202.4,77.56,180,85.21,173.24,85.21Z"/></svg>