<svg id="Layer_1" data-name="Layer 1" xmlns="http://www.w3.org/2000/svg" viewBox="0 0 33 53"><title>mobile</title><path d="M31.5,0H1.5A1.5,1.5,0,0,0,0,1.5v50A1.5,1.5,0,0,0,1.5,53h30A1.5,1.5,0,0,0,33,51.5V1.5A1.5,1.5,0,0,0,31.5,0ZM30,50H3V3H30V50Z"/><path d="M6.5,12a0.5,0.5,0,0,0,.35-0.15l5-5a0.5,0.5,0,1,0-.71-0.71l-5,5A0.5,0.5,0,0,0,6.5,12Z"/><path d="M6.5,17a0.5,0.5,0,0,0,.35-0.15l10-10a0.5,0.5,0,0,0-.71-0.71l-10,10A0.5,0.5,0,0,0,6.5,17Z"/><path d="M18.5,7h3a0.5,0.5,0,0,0,0-1h-3A0.5,0.5,0,0,0,18.5,7Z"/><circle cx="16.5" cy="41.51" r="1.49"/></svg>