<svg id="Layer_1" data-name="Layer 1" xmlns="http://www.w3.org/2000/svg" viewBox="0 0 518.62 199.6"><defs><style>.cls-1{fill:#de4661;}.cls-2{fill:#00a9c7;}.cls-3{fill:#7e8183;opacity:0.4;}.cls-4{fill:#3a5483;}.cls-5{fill:#03b2d2;}</style></defs><title>PC_logo-2015-solo</title><polygon class="cls-1" points="63.33 79.75 78.58 95 118.4 55.18 63.33 0.1 63.33 79.75"/><polygon class="cls-2" points="41.3 94.62 56.43 79.49 56.43 0 1.55 54.88 41.3 94.62"/><polygon class="cls-2" points="36.42 99.5 0 63.08 0 135.92 36.42 99.5"/><rect class="cls-3" x="50.34" y="89.82" width="19.2" height="19.73" transform="translate(-52.94 71.58) rotate(-45)"/><polygon class="cls-4" points="41.3 104.38 1.45 144.22 56.83 199.59 56.83 119.91 41.3 104.38"/><path class="cls-4" d="M188.91,123a23.33,23.33,0,0,1-23.59-23.68A23.72,23.72,0,1,1,188.91,123Zm0-41.54c-9.86,0-16.63,7.83-16.63,17.69s7.22,17.78,16.81,17.78c9.86,0,16.72-7.83,16.72-17.6C205.8,89.36,198.5,81.44,188.91,81.44Z"/><path class="cls-4" d="M250.12,121.92h-6.78V76.42h6.78v7.92c3-4.93,7.74-8.89,15.58-8.89,11,0,17.43,7.39,17.43,18.22v28.25h-6.78V95.35c0-8.45-4.58-13.73-12.59-13.73-7.83,0-13.64,5.72-13.64,14.26v26.05Z"/><path class="cls-5" d="M346.11,123a23.38,23.38,0,0,1-23.32-23.68c0-12.94,10-23.85,23.32-23.85,8.63,0,14,3.61,18.22,8.1l-4.49,4.75c-3.61-3.78-7.66-6.86-13.82-6.86-9.24,0-16.28,7.83-16.28,17.69s7.22,17.78,16.72,17.78c5.81,0,10.3-2.91,13.91-6.78l4.31,4C360.1,119.28,354.64,123,346.11,123Z"/><path class="cls-5" d="M414.11,117.08c6.25,0,10.65-2.55,14.35-6.43l4.22,3.79c-4.58,5.11-10.12,8.54-18.75,8.54-12.5,0-22.71-9.59-22.71-23.76,0-13.2,9.24-23.76,21.83-23.76,13.47,0,21.21,10.74,21.21,24.12a18.46,18.46,0,0,1-.09,2.11H398.09C399.06,111.54,406.1,117.08,414.11,117.08ZM427.4,96.66c-0.7-8.27-5.46-15.49-14.52-15.49-7.92,0-13.9,6.6-14.79,15.49H427.4Z"/><path class="cls-5" d="M446.73,85.14l-2-5.54a37.59,37.59,0,0,1,16.55-3.78c12.41,0,19.36,6.34,19.36,18.3v27.81H474.1v-6.86a19.94,19.94,0,0,1-16.46,7.83c-8.45,0-17-4.75-17-14.26,0-9.68,7.92-14.79,19.45-14.79a48.3,48.3,0,0,1,14,1.94V94.2c0-8.19-5-12.41-13.55-12.41A31.71,31.71,0,0,0,446.73,85.14Zm0.79,23.23c0,5.81,5.28,9.15,11.44,9.15,8.36,0,15.23-5.1,15.23-12.32v-4.4a47.51,47.51,0,0,0-13.38-1.94C452.28,98.87,447.52,102.56,447.52,108.37Z"/><path class="cls-5" d="M500,121.92h-6.78V76.42H500V88.3c3.34-7.57,9.95-13,18.57-12.67v7.3h-0.53c-9.95,0-18,7.13-18,20.86v18.13Z"/><path class="cls-4" d="M135.68,75.45c-8.36,0-13.73,4.67-17.43,10.12V67.52l-6.78,6.78v77.23l6.78-6.78V113.21c3.52,5.11,9,9.68,17.43,9.68,11,0,21.74-8.8,21.74-23.76S146.59,75.45,135.68,75.45Zm-1.23,41.37c-8.45,0-16.46-7-16.46-17.69s8-17.6,16.46-17.6c8.62,0,16,6.87,16,17.69C150.46,110.31,143.25,116.82,134.44,116.82Z"/><polygon class="cls-4" points="223.21 83.23 223.21 121.92 229.98 121.92 229.98 76.45 223.21 83.23"/><polygon class="cls-1" points="223.21 61.77 223.21 73.64 229.98 66.87 229.98 55.02 229.95 55.02 223.21 61.77"/><path class="cls-4" d="M318.19,82.41v-6H303.75V55.07L297,61.84V76.42h-6.34v6H297v27.46c0,9.24,5.54,12.85,12.85,12.85a17,17,0,0,0,8.19-1.94V115a14.25,14.25,0,0,1-6.6,1.59c-4.58,0-7.66-2-7.66-7.57V82.41h14.43Z"/><polygon class="cls-5" points="373.71 61.78 373.71 121.92 380.49 121.92 380.49 55.02 380.46 55.02 373.71 61.78"/></svg>