<svg id="Layer_1" data-name="Layer 1" xmlns="http://www.w3.org/2000/svg" viewBox="0 0 518.62 199.6"><defs><style>.cls-1,.cls-2{fill:#fff;}.cls-2{opacity:0.4;}</style></defs><title>PC_logo-2015-white</title><polygon class="cls-1" points="63.33 79.75 78.58 95 118.4 55.18 63.33 0.1 63.33 79.75"/><polygon class="cls-1" points="41.3 94.62 56.43 79.49 56.43 0 1.55 54.88 41.3 94.62"/><polygon class="cls-1" points="36.42 99.5 0 63.08 0 135.92 36.42 99.5"/><rect class="cls-2" x="50.34" y="89.82" width="19.2" height="19.73" transform="translate(-52.94 71.58) rotate(-45)"/><polygon class="cls-1" points="41.3 104.38 1.45 144.22 56.83 199.59 56.83 119.91 41.3 104.38"/><path class="cls-1" d="M188.91,123a23.33,23.33,0,0,1-23.59-23.68A23.72,23.72,0,1,1,188.91,123Zm0-41.54c-9.86,0-16.63,7.83-16.63,17.69s7.22,17.78,16.81,17.78c9.86,0,16.72-7.83,16.72-17.6C205.8,89.36,198.5,81.44,188.91,81.44Z"/><path class="cls-1" d="M250.12,121.92h-6.78V76.42h6.78v7.92c3-4.93,7.74-8.89,15.58-8.89,11,0,17.43,7.39,17.43,18.22v28.25h-6.78V95.35c0-8.45-4.58-13.73-12.59-13.73-7.83,0-13.64,5.72-13.64,14.26v26.05Z"/><path class="cls-1" d="M346.11,123a23.38,23.38,0,0,1-23.32-23.68c0-12.94,10-23.85,23.32-23.85,8.63,0,14,3.61,18.22,8.1l-4.49,4.75c-3.61-3.78-7.66-6.86-13.82-6.86-9.24,0-16.28,7.83-16.28,17.69s7.22,17.78,16.72,17.78c5.81,0,10.3-2.91,13.91-6.78l4.31,4C360.1,119.28,354.64,123,346.11,123Z"/><path class="cls-1" d="M414.11,117.08c6.25,0,10.65-2.55,14.35-6.43l4.22,3.79c-4.58,5.11-10.12,8.54-18.75,8.54-12.5,0-22.71-9.59-22.71-23.76,0-13.2,9.24-23.76,21.83-23.76,13.47,0,21.21,10.74,21.21,24.12a18.46,18.46,0,0,1-.09,2.11H398.09C399.06,111.54,406.1,117.08,414.11,117.08ZM427.4,96.66c-0.7-8.27-5.46-15.49-14.52-15.49-7.92,0-13.9,6.6-14.79,15.49H427.4Z"/><path class="cls-1" d="M446.73,85.14l-2-5.54a37.59,37.59,0,0,1,16.55-3.78c12.41,0,19.36,6.34,19.36,18.3v27.81H474.1v-6.86a19.94,19.94,0,0,1-16.46,7.83c-8.45,0-17-4.75-17-14.26,0-9.68,7.92-14.79,19.45-14.79a48.3,48.3,0,0,1,14,1.94V94.2c0-8.19-5-12.41-13.55-12.41A31.71,31.71,0,0,0,446.73,85.14Zm0.79,23.23c0,5.81,5.28,9.15,11.44,9.15,8.36,0,15.23-5.1,15.23-12.32v-4.4a47.51,47.51,0,0,0-13.38-1.94C452.28,98.87,447.52,102.56,447.52,108.37Z"/><path class="cls-1" d="M500,121.92h-6.78V76.42H500V88.3c3.34-7.57,9.95-13,18.57-12.67v7.3h-0.53c-9.95,0-18,7.13-18,20.86v18.13Z"/><path class="cls-1" d="M135.68,75.45c-8.36,0-13.73,4.67-17.43,10.12V67.52l-6.78,6.78v77.23l6.78-6.78V113.21c3.52,5.11,9,9.68,17.43,9.68,11,0,21.74-8.8,21.74-23.76S146.59,75.45,135.68,75.45Zm-1.23,41.37c-8.45,0-16.46-7-16.46-17.69s8-17.6,16.46-17.6c8.62,0,16,6.87,16,17.69C150.46,110.31,143.25,116.82,134.44,116.82Z"/><polygon class="cls-1" points="223.21 83.23 223.21 121.92 229.98 121.92 229.98 76.45 223.21 83.23"/><polygon class="cls-1" points="223.21 61.77 223.21 73.64 229.98 66.87 229.98 55.02 229.95 55.02 223.21 61.77"/><path class="cls-1" d="M318.19,82.41v-6H303.75V55.07L297,61.84V76.42h-6.34v6H297v27.46c0,9.24,5.54,12.85,12.85,12.85a17,17,0,0,0,8.19-1.94V115a14.25,14.25,0,0,1-6.6,1.59c-4.58,0-7.66-2-7.66-7.57V82.41h14.43Z"/><polygon class="cls-1" points="373.71 61.78 373.71 121.92 380.49 121.92 380.49 55.02 380.46 55.02 373.71 61.78"/><path class="cls-1" d="M144,151.08v-6.56h-9v6.56h-1v-14h1v6.48h9v-6.48h1v14h-1Z"/><path class="cls-1" d="M154.36,150.4a4.58,4.58,0,0,0,3.5-1.6l0.68,0.6a5.36,5.36,0,0,1-4.22,1.92,5.07,5.07,0,0,1-5-5.32v0a5,5,0,0,1,4.84-5.32c2.86,0,4.68,2.32,4.68,5.34v0a2.33,2.33,0,0,1,0,.36h-8.45A4,4,0,0,0,154.36,150.4Zm3.42-4.9c-0.14-2.06-1.32-4-3.66-4a4,4,0,0,0-3.76,4h7.41Z"/><path class="cls-1" d="M169.7,151.08v-1.7a4.64,4.64,0,0,1-3.9,1.94c-1.9,0-3.94-1.08-3.94-3.2v0c0-2.12,1.82-3.32,4.46-3.32a12.37,12.37,0,0,1,3.38.44v-0.44c0-2.06-1.26-3.12-3.36-3.12a6.86,6.86,0,0,0-3.2.82l-0.36-.86a8.2,8.2,0,0,1,3.62-.88c2.62,0,4.26,1.36,4.26,4v6.36h-1Zm0-5a13.49,13.49,0,0,0-3.46-.46c-2.16,0-3.36,1-3.36,2.38v0c0,1.48,1.4,2.34,3,2.34,2.08,0,3.86-1.28,3.86-3.14V146.1Z"/><path class="cls-1" d="M175.32,151.08V136.49h1v14.59h-1Z"/><path class="cls-1" d="M184.56,151.26a2.61,2.61,0,0,1-2.86-2.8v-6.68h-1.48v-0.9h1.48v-3.26h1v3.26h3.58v0.9h-3.58v6.58a1.79,1.79,0,0,0,2,2,3.4,3.4,0,0,0,1.5-.36v0.92A3.77,3.77,0,0,1,184.56,151.26Z"/><path class="cls-1" d="M197.91,151.08V145c0-2.1-1.18-3.48-3.24-3.48a3.49,3.49,0,0,0-3.54,3.64v5.9h-1V136.49h1v6.3a4,4,0,0,1,3.68-2.14,3.88,3.88,0,0,1,4.08,4.2v6.24h-1Z"/><path class="cls-1" d="M207.92,151.32a5.25,5.25,0,0,1-5.2-5.3v0a5.29,5.29,0,0,1,5.2-5.34,5.36,5.36,0,0,1,4.08,1.88l-0.7.72a4.59,4.59,0,0,0-3.4-1.68,4.21,4.21,0,0,0-4.12,4.38v0a4.29,4.29,0,0,0,4.2,4.42,4.56,4.56,0,0,0,3.42-1.7l0.68,0.6A5.26,5.26,0,0,1,207.92,151.32Z"/><path class="cls-1" d="M222.83,151.08v-1.7a4.64,4.64,0,0,1-3.9,1.94c-1.9,0-3.94-1.08-3.94-3.2v0c0-2.12,1.82-3.32,4.46-3.32a12.34,12.34,0,0,1,3.38.44v-0.44c0-2.06-1.26-3.12-3.36-3.12a6.83,6.83,0,0,0-3.2.82l-0.36-.86a8.2,8.2,0,0,1,3.62-.88c2.62,0,4.26,1.36,4.26,4v6.36h-1Zm0-5a13.47,13.47,0,0,0-3.46-.46c-2.16,0-3.36,1-3.36,2.38v0c0,1.48,1.4,2.34,3,2.34,2.08,0,3.86-1.28,3.86-3.14V146.1Z"/><path class="cls-1" d="M233.72,141.81c-2.36,0-4.42,1.78-4.42,5.1v4.18h-1v-10.2h1v2.9a4.81,4.81,0,0,1,4.52-3.06v1.08h-0.1Z"/><path class="cls-1" d="M241.16,150.4a4.58,4.58,0,0,0,3.5-1.6l0.68,0.6a5.36,5.36,0,0,1-4.22,1.92,5.07,5.07,0,0,1-5-5.32v0a5,5,0,0,1,4.84-5.32c2.86,0,4.68,2.32,4.68,5.34v0a2.34,2.34,0,0,1,0,.36h-8.46A4,4,0,0,0,241.16,150.4Zm3.42-4.9c-0.14-2.06-1.32-4-3.66-4a4,4,0,0,0-3.76,4h7.42Z"/><path class="cls-1" d="M261.64,138v13h-1V138h-4.88v-1h10.79v1h-4.88Z"/><path class="cls-1" d="M272.1,150.4a4.59,4.59,0,0,0,3.5-1.6l0.68,0.6a5.36,5.36,0,0,1-4.22,1.92,5.07,5.07,0,0,1-5-5.32v0a5,5,0,0,1,4.84-5.32c2.86,0,4.68,2.32,4.68,5.34v0a2.34,2.34,0,0,1,0,.36H268.1A4,4,0,0,0,272.1,150.4Zm3.42-4.9c-0.14-2.06-1.32-4-3.66-4a4,4,0,0,0-3.76,4h7.41Z"/><path class="cls-1" d="M284.94,151.32a5.24,5.24,0,0,1-5.2-5.3v0a5.29,5.29,0,0,1,5.2-5.34,5.35,5.35,0,0,1,4.08,1.88l-0.7.72a4.59,4.59,0,0,0-3.4-1.68,4.21,4.21,0,0,0-4.12,4.38v0a4.29,4.29,0,0,0,4.2,4.42,4.56,4.56,0,0,0,3.42-1.7l0.68,0.6A5.26,5.26,0,0,1,284.94,151.32Z"/><path class="cls-1" d="M300.62,151.08V145c0-2.1-1.18-3.48-3.24-3.48a3.49,3.49,0,0,0-3.54,3.64v5.9h-1V136.49h1v6.3a4,4,0,0,1,3.68-2.14,3.88,3.88,0,0,1,4.08,4.2v6.24h-1Z"/><path class="cls-1" d="M313.87,151.08V145c0-2.1-1.18-3.48-3.24-3.48a3.49,3.49,0,0,0-3.54,3.64v5.9h-1v-10.2h1v1.9a4,4,0,0,1,3.68-2.14,3.88,3.88,0,0,1,4.08,4.2v6.24h-1Z"/><path class="cls-1" d="M323.9,151.32a5.21,5.21,0,0,1-5.22-5.3v0a5.27,5.27,0,0,1,5.26-5.34,5.21,5.21,0,0,1,5.22,5.3v0A5.27,5.27,0,0,1,323.9,151.32Zm4.2-5.34a4.27,4.27,0,0,0-4.2-4.42,4.21,4.21,0,0,0-4.16,4.38v0a4.27,4.27,0,0,0,4.2,4.42,4.21,4.21,0,0,0,4.16-4.38v0Z"/><path class="cls-1" d="M333.32,151.08V136.49h1v14.59h-1Z"/><path class="cls-1" d="M343.68,151.32a5.21,5.21,0,0,1-5.22-5.3v0a5.27,5.27,0,0,1,5.26-5.34,5.21,5.21,0,0,1,5.22,5.3v0A5.27,5.27,0,0,1,343.68,151.32Zm4.2-5.34a4.27,4.27,0,0,0-4.2-4.42,4.21,4.21,0,0,0-4.16,4.38v0a4.28,4.28,0,0,0,4.2,4.42,4.21,4.21,0,0,0,4.16-4.38v0Z"/><path class="cls-1" d="M357.44,154.32a7.69,7.69,0,0,1-4.68-1.56l0.58-.8a6.66,6.66,0,0,0,4.12,1.44,3.67,3.67,0,0,0,4-4V148a5.07,5.07,0,0,1-4.26,2.36,4.83,4.83,0,0,1-4.9-4.8v0a4.85,4.85,0,0,1,4.9-4.84,5.07,5.07,0,0,1,4.26,2.28v-2h1v8.62C362.43,152.6,360.33,154.32,357.44,154.32Zm4.08-8.86a4,4,0,0,0-4.22-3.88,3.77,3.77,0,0,0-3.94,3.86v0a3.87,3.87,0,0,0,3.94,3.9,4.07,4.07,0,0,0,4.22-3.88v0Z"/><path class="cls-1" d="M371.8,151.44c-0.9,2.14-1.94,2.9-3.4,2.9a4.58,4.58,0,0,1-2-.44l0.34-.86a3.54,3.54,0,0,0,1.74.38c1.06,0,1.76-.62,2.52-2.4l-4.9-10.13h1.14l4.24,9.12,3.68-9.12h1.08Z"/><path class="cls-1" d="M397.21,151.08l-4.46-5.8h-4.58v5.8h-1v-14H393c3,0,5,1.64,5,4v0c0,2.34-1.74,3.68-4.1,4l4.62,6h-1.32Zm-0.24-10c0-1.88-1.48-3.06-4-3.06h-4.78v6.29h4.72c2.34,0,4.08-1.18,4.08-3.2v0Z"/><path class="cls-1" d="M406.51,150.4a4.59,4.59,0,0,0,3.5-1.6l0.68,0.6a5.36,5.36,0,0,1-4.22,1.92,5.07,5.07,0,0,1-5-5.32v0a5,5,0,0,1,4.84-5.32c2.86,0,4.68,2.32,4.68,5.34v0a2.33,2.33,0,0,1,0,.36h-8.45A4,4,0,0,0,406.51,150.4Zm3.42-4.9c-0.14-2.06-1.32-4-3.66-4a4,4,0,0,0-3.76,4h7.41Z"/><path class="cls-1" d="M414.4,145.7v-1.12h5.36v1.12H414.4Z"/><path class="cls-1" d="M424.38,151.08v-14h1v14h-1Z"/><path class="cls-1" d="M444.93,151.08V145c0-2.2-1.14-3.48-3-3.48a3.28,3.28,0,0,0-3.22,3.6v5.94h-1V145c0-2.12-1.16-3.42-3-3.42a3.44,3.44,0,0,0-3.26,3.66v5.88h-1v-10.2h1v1.82a3.75,3.75,0,0,1,3.4-2.06,3.66,3.66,0,0,1,3.44,2.2,4,4,0,0,1,3.68-2.2c2.42,0,3.92,1.7,3.92,4.26v6.18h-1Z"/><path class="cls-1" d="M457.51,151.08v-1.7a4.64,4.64,0,0,1-3.9,1.94c-1.9,0-3.94-1.08-3.94-3.2v0c0-2.12,1.82-3.32,4.46-3.32a12.37,12.37,0,0,1,3.38.44v-0.44c0-2.06-1.26-3.12-3.36-3.12a6.86,6.86,0,0,0-3.2.82l-0.36-.86a8.2,8.2,0,0,1,3.62-.88c2.62,0,4.26,1.36,4.26,4v6.36h-1Zm0-5a13.49,13.49,0,0,0-3.46-.46c-2.16,0-3.36,1-3.36,2.38v0c0,1.48,1.4,2.34,3,2.34,2.08,0,3.86-1.28,3.86-3.14V146.1Z"/><path class="cls-1" d="M467.48,154.32a7.7,7.7,0,0,1-4.68-1.56l0.58-.8a6.66,6.66,0,0,0,4.12,1.44,3.66,3.66,0,0,0,4-4V148a5.07,5.07,0,0,1-4.26,2.36,4.83,4.83,0,0,1-4.9-4.8v0a4.85,4.85,0,0,1,4.9-4.84,5.07,5.07,0,0,1,4.26,2.28v-2h1v8.62C472.47,152.6,470.37,154.32,467.48,154.32Zm4.08-8.86a4,4,0,0,0-4.22-3.88,3.77,3.77,0,0,0-3.94,3.86v0a3.87,3.87,0,0,0,3.94,3.9,4.07,4.07,0,0,0,4.22-3.88v0Z"/><path class="cls-1" d="M477.22,138.23v-1.34h1.22v1.34h-1.22Zm0.12,12.85v-10.2h1v10.2h-1Z"/><path class="cls-1" d="M490.93,151.08V145c0-2.1-1.18-3.48-3.24-3.48a3.49,3.49,0,0,0-3.54,3.64v5.9h-1v-10.2h1v1.9a4,4,0,0,1,3.68-2.14,3.88,3.88,0,0,1,4.08,4.2v6.24h-1Z"/><path class="cls-1" d="M500.77,150.4a4.59,4.59,0,0,0,3.5-1.6l0.68,0.6a5.36,5.36,0,0,1-4.22,1.92,5.07,5.07,0,0,1-5-5.32v0a5,5,0,0,1,4.84-5.32c2.86,0,4.68,2.32,4.68,5.34v0a2.33,2.33,0,0,1,0,.36h-8.45A4,4,0,0,0,500.77,150.4Zm3.42-4.9c-0.14-2.06-1.32-4-3.66-4a4,4,0,0,0-3.76,4h7.41Z"/><path class="cls-1" d="M517.61,151.08V148.8a4.93,4.93,0,0,1-4.2,2.52,5.06,5.06,0,0,1-5-5.3v0a5.1,5.1,0,0,1,5-5.34,4.91,4.91,0,0,1,4.2,2.44v-6.6h1v14.59h-1Zm0.06-5.12a4.26,4.26,0,0,0-4.16-4.38c-2.22,0-4,1.62-4,4.36v0a4.1,4.1,0,0,0,4,4.4,4.27,4.27,0,0,0,4.16-4.38v0Z"/></svg>